<?xml version="1.0" encoding="UTF-8"?>
<svg version="1.1" xmlns="http://www.w3.org/2000/svg" width="501" height="501">
<path d="M0 0 C165.33 0 330.66 0 501 0 C501 165.33 501 330.66 501 501 C335.67 501 170.34 501 0 501 C0 335.67 0 170.34 0 0 Z " fill="#6A984D" transform="translate(0,0)"/>
<path d="M0 0 C-0.29132813 0.71824951 -0.58265625 1.43649902 -0.8828125 2.17651367 C-10.50831689 26.50320909 -16.78159082 51.64262762 -7 77 C-3.65733784 84.40022895 0.70466936 90.86377994 6 97 C6.55945313 97.65484375 7.11890625 98.3096875 7.6953125 98.984375 C13.30707453 105.05771053 20.08988549 109.28043566 26.99902344 113.71337891 C77.49793927 146.18400927 77.49793927 146.18400927 84 174 C84.21439908 176.82063561 84.19223573 179.61101351 84.125 182.4375 C84.11597656 183.16904297 84.10695312 183.90058594 84.09765625 184.65429688 C84.07436153 186.43634298 84.0385019 188.21821759 84 190 C98.85943416 176.13119479 111.44784805 158.92615048 119 140 C119.27070313 139.32428955 119.54140625 138.6485791 119.8203125 137.95239258 C121.91998225 132.28910292 122.40419133 127.32114337 122.25 121.3125 C122.24226563 120.08950195 122.24226563 120.08950195 122.234375 118.84179688 C122.17774136 114.46330839 121.8630805 110.30844215 121 106 C131.52008757 114.60734438 140.59592713 124.34734576 149 135 C149.94336613 136.15523798 150.88879077 137.3087971 151.8359375 138.4609375 C168.32253957 158.60349711 184.51303625 181.46251624 193.04296875 206.234375 C193.80356904 208.43235463 194.61353423 210.58996605 195.453125 212.7578125 C206.23201037 241.40279291 208.23855291 273.57105827 195.92724609 301.97802734 C190.99037895 312.74346538 184.86981555 322.13015264 177 331 C176.39285156 331.72703125 175.78570312 332.4540625 175.16015625 333.203125 C167.33890752 342.49640013 157.54424342 349.58712555 148 357 C149.81293089 356.85962479 151.6253443 356.71255111 153.4375 356.5625 C154.44683594 356.48128906 155.45617187 356.40007812 156.49609375 356.31640625 C158.93640779 356.26788532 158.93640779 356.26788532 160 355 C162.34987262 354.76472227 164.70556039 354.58613583 167.0625 354.4375 C168.99802734 354.31181641 168.99802734 354.31181641 170.97265625 354.18359375 C171.97167969 354.12300781 172.97070312 354.06242187 174 354 C174 353.34 174 352.68 174 352 C174.55042969 351.93683594 175.10085938 351.87367188 175.66796875 351.80859375 C185.40401072 350.37460307 194.53752865 346.95437285 203.79272461 343.72436523 C205.84764162 343.0499997 207.89545573 342.49471041 210 342 C210 341.34 210 340.68 210 340 C210.88042969 339.66226562 211.76085937 339.32453125 212.66796875 338.9765625 C213.82941406 338.53054688 214.99085938 338.08453125 216.1875 337.625 C217.33605469 337.18414062 218.48460937 336.74328125 219.66796875 336.2890625 C222.45335994 335.21147857 225.22997721 334.1163557 228 333 C228 332.34 228 331.68 228 331 C228.61488281 330.74605469 229.22976563 330.49210937 229.86328125 330.23046875 C231.07564453 329.71419922 231.07564453 329.71419922 232.3125 329.1875 C233.11300781 328.85105469 233.91351563 328.51460938 234.73828125 328.16796875 C237.04243144 327.12753815 237.04243144 327.12753815 238.60546875 325.36328125 C240 324 240 324 243 324 C243.33 323.01 243.66 322.02 244 321 C245.65 320.67 247.3 320.34 249 320 C249 319.34 249 318.68 249 318 C249.639375 317.896875 250.27875 317.79375 250.9375 317.6875 C251.9584375 317.3471875 251.9584375 317.3471875 253 317 C253.33 316.01 253.66 315.02 254 314 C255.55003004 312.60410053 257.16634239 311.28112981 258.8125 310 C273.41743383 298.30848562 285.98645722 285.15553605 297 270 C297.40186523 269.44924805 297.80373047 268.89849609 298.21777344 268.33105469 C331.66443271 221.89383155 342.64666706 164.62945116 334.59960938 108.56982422 C331.9351082 92.70649516 327.48389177 76.74342614 321 62 C320.64566895 61.19401367 320.29133789 60.38802734 319.92626953 59.55761719 C312.75066379 43.47302322 304.52742395 28.39499543 293 15 C293.33 14.34 293.66 13.68 294 13 C306.47874906 26.04212374 317.14252173 40.16017911 325.87548828 55.96533203 C326.96276962 57.93263613 328.07170967 59.88637063 329.18359375 61.83984375 C334.0838155 70.58355569 337.74159025 79.53398 341 89 C341.22284668 89.63437988 341.44569336 90.26875977 341.67529297 90.92236328 C343.19643747 95.25779276 344.62006339 99.61776887 346 104 C346.3609375 105.10859375 346.721875 106.2171875 347.09375 107.359375 C357.28593729 141.48775971 355.68085407 181.99468949 346 216 C345.64811091 217.33941693 345.29788577 218.67927197 344.94921875 220.01953125 C337.23837412 248.80441997 322.45572981 275.52950845 303 298 C302.29488281 298.81597656 301.58976562 299.63195312 300.86328125 300.47265625 C272.23510625 332.90421537 236.45767466 354.79001916 195 367 C194.26185059 367.22268555 193.52370117 367.44537109 192.76318359 367.67480469 C175.06046902 372.88823925 155.74901349 374.22334737 137.375 374.3125 C136.15043091 374.32071777 136.15043091 374.32071777 134.90112305 374.32910156 C131.08354392 374.28110772 129.24826391 374.16550927 126 372 C127.485 370.515 127.485 370.515 129 369 C128.13375 369.680625 127.2675 370.36125 126.375 371.0625 C114.76998517 377.47158117 92.69639416 369.47990434 80.82714844 366.09521484 C51.74783072 357.23969193 26.09166318 343.86136409 2.74609375 324.296875 C0.75596405 322.63229995 -1.24524913 321.0020612 -3.27734375 319.390625 C-4.37241678 318.51044273 -5.46746931 317.63023495 -6.5625 316.75 C-7.55378906 315.96109375 -8.54507813 315.1721875 -9.56640625 314.359375 C-12.06622272 311.93579691 -12.88945565 310.23676242 -14 307 C-15.3153341 306.29848848 -16.65117592 305.63474075 -18 305 C-19.37073786 303.36395804 -20.70055256 301.69321939 -22 300 C-23.11375 298.9171875 -23.11375 298.9171875 -24.25 297.8125 C-41.04448522 280.63632194 -52.09240209 258.05204754 -61 236 C-61.41894531 235.01 -61.83789062 234.02 -62.26953125 233 C-81.46995585 184.23701689 -78.10923216 124.91332802 -57.80419922 77.18945312 C-49.98821989 59.48319631 -40.57110603 42.77884159 -28 28 C-27.37609375 27.19433594 -26.7521875 26.38867188 -26.109375 25.55859375 C-21.16314413 19.22477521 -15.72201407 13.51099225 -10.0625 7.8125 C-8.92470093 6.66092407 -8.92470093 6.66092407 -7.76391602 5.48608398 C-7.04905029 4.77524658 -6.33418457 4.06440918 -5.59765625 3.33203125 C-4.95320557 2.68983643 -4.30875488 2.0476416 -3.64477539 1.38598633 C-2 0 -2 0 0 0 Z " fill="#90E44A" transform="translate(111,73)"/>
<path d="M0 0 C2.05903072 1.16082138 3.80601157 1.73828557 6.11328125 2.19140625 C6.11328125 2.85140625 6.11328125 3.51140625 6.11328125 4.19140625 C6.76039063 4.40667969 7.4075 4.62195312 8.07421875 4.84375 C12.27245464 6.70543558 15.93475161 9.19509605 19.73828125 11.75390625 C20.53645264 12.28749756 21.33462402 12.82108887 22.15698242 13.37084961 C27.65534709 17.09149314 32.82740241 21.00699894 37.8515625 25.3515625 C40.10032548 27.27021453 40.10032548 27.27021453 42.79296875 28.796875 C45.64847299 30.51306189 47.03809943 32.58260625 49.11328125 35.19140625 C50.36441281 36.33827685 51.63748621 37.4614455 52.92578125 38.56640625 C94.56479879 74.36674236 115.57022406 132.68592284 119.88330078 186.14257812 C120.7376452 199.4489613 120.33381553 212.86774284 120.11328125 226.19140625 C119.45328125 225.86140625 118.79328125 225.53140625 118.11328125 225.19140625 C118.06429687 224.06605469 118.0153125 222.94070312 117.96484375 221.78125 C117.04063574 202.06336959 113.47769036 183.42226265 109.11328125 164.19140625 C108.91895508 163.30904297 108.72462891 162.42667969 108.52441406 161.51757812 C100.75503667 126.62000498 83.43151491 92.2994102 60.11328125 65.19140625 C59.19182319 64.08797815 58.27132847 62.98374519 57.3515625 61.87890625 C47.51546448 50.14074738 36.89659141 37.48440185 23.54296875 29.69140625 C20.9795459 28.10884295 19.23241582 26.32246841 17.11328125 24.19140625 C4.15934159 14.43618839 -10.76589402 6.03592052 -25.88671875 0.19140625 C-25.88671875 -0.46859375 -25.88671875 -1.12859375 -25.88671875 -1.80859375 C-8.13691473 -5.07292552 -8.13691473 -5.07292552 0 0 Z " fill="#87E14A" transform="translate(240.88671875,25.80859375)"/>
<path d="M0 0 C0.66 0 1.32 0 2 0 C2 165.33 2 330.66 2 501 C-163.33 501 -328.66 501 -499 501 C-499 500.34 -499 499.68 -499 499 C-334.33 499 -169.66 499 0 499 C0 334.33 0 169.66 0 0 Z " fill="#FFFEFF" transform="translate(499,0)"/>
<path d="M0 0 C0.495 0.99 0.495 0.99 1 2 C-0.12197093 4.15272472 -1.29463095 6.18539179 -2.5625 8.25 C-11.34057426 23.07886778 -16.92060043 39.06330238 -20 56 C-20.17208984 56.94512451 -20.34417969 57.89024902 -20.52148438 58.86401367 C-21.8619461 66.77142603 -22.31662059 74.42465116 -22.25 82.4375 C-22.24323242 83.62472656 -22.23646484 84.81195313 -22.22949219 86.03515625 C-22.13272874 94.2262945 -21.63974616 101.96055881 -20 110 C-19.73973072 111.45031409 -19.48070632 112.90085191 -19.22265625 114.3515625 C-16.0676524 131.33150785 -10.20204244 147.05336725 -2.8449707 162.64233398 C-2.47460693 163.43196533 -2.10424316 164.22159668 -1.72265625 165.03515625 C-1.39015869 165.7300415 -1.05766113 166.42492676 -0.71508789 167.14086914 C0 169 0 169 0 172 C-21.78679209 149.54378134 -34.43635256 119.10496535 -34.25 87.9375 C-34.26160156 85.99133789 -34.26160156 85.99133789 -34.2734375 84.00585938 C-34.23538281 65.23538281 -34.23538281 65.23538281 -31 62 C-30.69926685 60.3593667 -30.43504029 58.71199746 -30.1875 57.0625 C-26.59311411 36.89256477 -13.23847189 15.33065546 0 0 Z " fill="#6D9A4C" transform="translate(100,85)"/>
<path d="M0 0 C-0.65793165 1.67013418 -1.32723284 3.3357865 -2 5 C-2.6496875 6.8253125 -2.6496875 6.8253125 -3.3125 8.6875 C-5 12 -5 12 -7.5625 13.4375 C-10 14 -10 14 -12 14 C-13.58011037 15.94127845 -14.9535663 17.98976439 -16.3671875 20.0546875 C-18.12741299 22.15179825 -19.5167481 22.92292689 -22 24 C-23.35113205 24.97581759 -24.68946944 25.97029741 -26 27 C-22.36062557 18.76941475 -14.32042714 12.21813999 -8.0625 5.875 C-7.49490967 5.29435791 -6.92731934 4.71371582 -6.3425293 4.11547852 C-2.23571625 0 -2.23571625 0 0 0 Z " fill="#D8DC47" transform="translate(111,73)"/>
<path d="M0 0 C0.66 0.33 1.32 0.66 2 1 C0.68 1.99 -0.64 2.98 -2 4 C1.35475403 5.67737701 5.12563609 5.14447042 8.8125 5.125 C10.12686035 5.12209961 10.12686035 5.12209961 11.46777344 5.11914062 C21.32566922 5.05624019 31.15934426 4.55328988 41 4 C32.43022246 8.6624798 21.04038812 7.19910945 11.5 7.1875 C10.36630981 7.18759064 10.36630981 7.18759064 9.2097168 7.18768311 C-20.84664969 7.15335031 -20.84664969 7.15335031 -25 3 C-23.17275391 3.17789062 -23.17275391 3.17789062 -21.30859375 3.359375 C-19.68499101 3.49076482 -18.06128698 3.62090704 -16.4375 3.75 C-15.23770508 3.87181641 -15.23770508 3.87181641 -14.01367188 3.99609375 C-7.97319428 4.43988394 -5.06104659 3.25678674 0 0 Z " fill="#48B54D" transform="translate(240,441)"/>
<path d="M0 0 C0.33 0 0.66 0 1 0 C1.66 3.96 2.32 7.92 3 12 C3.33 9.36 3.66 6.72 4 4 C4.33 4 4.66 4 5 4 C5 15.88 5 27.76 5 40 C4.34 39.67 3.68 39.34 3 39 C2.92652344 37.31197266 2.92652344 37.31197266 2.8515625 35.58984375 C2.43076994 26.71529941 1.74032926 18.02406086 0.40234375 9.234375 C0.01455899 6.11703735 -0.07130327 3.13734405 0 0 Z " fill="#DBDF47" transform="translate(356,212)"/>
<path d="M0 0 C6.86689804 5.10615496 13.51087494 12.11235026 17 20 C16.01 20.33 15.02 20.66 14 21 C12.0371187 18.25322042 10.08050886 15.50203192 8.125 12.75 C7.56941406 11.97269531 7.01382812 11.19539063 6.44140625 10.39453125 C5.63896484 9.26337891 5.63896484 9.26337891 4.8203125 8.109375 C4.32805176 7.41811523 3.83579102 6.72685547 3.32861328 6.01464844 C2.0441679 4.06697419 0.99587729 2.10745816 0 0 Z " fill="#C9D348" transform="translate(404,86)"/>
<path d="M0 0 C0.33 0.66 0.66 1.32 1 2 C-0.12491819 4.42839482 -1.3000051 6.68474576 -2.625 9 C-2.96917969 9.64195313 -3.31335938 10.28390625 -3.66796875 10.9453125 C-5.4020829 14.0040083 -6.61703705 15.80150653 -9.7734375 17.4375 C-10.50820312 17.623125 -11.24296875 17.80875 -12 18 C-10.46906512 13.32800909 -7.89242605 9.97829995 -4.875 6.1875 C-4.40707031 5.59001953 -3.93914062 4.99253906 -3.45703125 4.37695312 C-2.30994435 2.91383208 -1.15568766 1.45633703 0 0 Z " fill="#7BA34C" transform="translate(100,85)"/>
<path d="M0 0 C0.66 0.33 1.32 0.66 2 1 C-0.97 3.97 -0.97 3.97 -4 7 C-2.35 7.33 -0.7 7.66 1 8 C1 8.33 1 8.66 1 9 C-4.94 9.495 -4.94 9.495 -11 10 C-7.50640535 6.40365256 -3.88901869 3.16548033 0 0 Z " fill="#58AF4D" transform="translate(269,421)"/>
<path d="M0 0 C5.875 4.625 5.875 4.625 7 8 C6.01 8.33 5.02 8.66 4 9 C0 3.375 0 3.375 0 0 Z " fill="#E4E447" transform="translate(414,98)"/>
<path d="M0 0 C0 0.33 0 0.66 0 1 C-5.94 1.495 -5.94 1.495 -12 2 C-12 2.66 -12 3.32 -12 4 C-13.65 3.67 -15.3 3.34 -17 3 C-16.67 2.34 -16.34 1.68 -16 1 C-10.66645094 -0.11115605 -5.43087408 -0.11083416 0 0 Z " fill="#4AC44D" transform="translate(227,22)"/>
<path d="M0 0 C0.33 0.66 0.66 1.32 1 2 C-0.1875 5.5625 -0.1875 5.5625 -2 9 C-4.1875 9.9375 -4.1875 9.9375 -6 10 C-4.34832443 6.4213696 -2.21713508 3.25179812 0 0 Z " fill="#ECE846" transform="translate(108,76)"/>
<path d="M0 0 C3.3 0.33 6.6 0.66 10 1 C10 1.33 10 1.66 10 2 C4.06 2.495 4.06 2.495 -2 3 C-1.34 2.01 -0.68 1.02 0 0 Z " fill="#3AC94D" transform="translate(260,428)"/>
<path d="M0 0 C0.33 0.66 0.66 1.32 1 2 C-0.98 4.97 -0.98 4.97 -3 8 C-3.99 7.67 -4.98 7.34 -6 7 C-4.02 4.69 -2.04 2.38 0 0 Z " fill="#8FB04B" transform="translate(100,85)"/>
</svg>
